<svg id="Layer_1" data-name="Layer 1" xmlns="http://www.w3.org/2000/svg" viewBox="0 0 126.04 84.92"><defs><style>.cls-1{fill:#1a557d;}.cls-2{fill:#143359;}</style></defs><path class="cls-1" d="M173.7,186.14v-54h2.73l25.65,25.59,25.62-25.59h6v54h-12v-33l-21.07,21.07-20.89-21.07v33Z" transform="translate(-173.7 -132.14)"/><path class="cls-1" d="M239.72,132.14h12v48h6a6,6,0,0,0,6-6v-42h12v48h6a6,6,0,0,0,6-6v-42h12v33.5a20.64,20.64,0,0,1-20.5,20.5h-15.5v-1.91a17.48,17.48,0,0,1-8.52,1.91h-15.5Z" transform="translate(-173.7 -132.14)"/><path class="cls-2" d="M179.78,200.94l4.47-6.66a17.14,17.14,0,0,0-3.21.44,23.42,23.42,0,0,0-2.89.81c-.8.29-1.51.56-2.14.82l-1.36.55a.37.37,0,0,1-.2-.07.22.22,0,0,1-.11-.18,10.56,10.56,0,0,1,.68-1.44c.46-.88,1-1.82,1.61-2.82a27.4,27.4,0,0,1,9.05-1.83q4.55,0,6.3,1.93a4.61,4.61,0,0,1,1,1.66,5.92,5.92,0,0,1,.35,2,8.68,8.68,0,0,1-.92,4,9.21,9.21,0,0,1-2.61,3.11,12.45,12.45,0,0,1-4,2,17.45,17.45,0,0,1-5,.69c-.32,0-1-.06-2-.17l-1.32,2.4a1,1,0,0,1,.21.5,1.33,1.33,0,0,1-.21.76l-.77,1.16c-.33.47-.54.79-.65,1a2.52,2.52,0,0,1-.39.41.69.69,0,0,1-.41.17c-.29,0-.47-.08-.54-.25a1.71,1.71,0,0,1-.12-.71,5.73,5.73,0,0,1,.64-2c.42-.93,1.06-2.17,1.92-3.71a2.83,2.83,0,0,1-1.07-.69,1.28,1.28,0,0,1-.38-.83,2.17,2.17,0,0,1,1-1.69A8.06,8.06,0,0,1,179.78,200.94Zm1.52.4-.83,1.4,1,.06.73,0a13,13,0,0,0,4.45-.69,9,9,0,0,0,3-1.7,6.92,6.92,0,0,0,1.61-2.05,4.13,4.13,0,0,0,.5-1.71,1.75,1.75,0,0,0-.77-1.5,5,5,0,0,0-2.19-.74,28.29,28.29,0,0,0-3.68-.19,2.13,2.13,0,0,1,0,.39,4.06,4.06,0,0,1-.81,2l-2.55,4,1.92-.22c.16,0,.24.07.24.22s-.13.21-.38.26Z" transform="translate(-173.7 -132.14)"/><path class="cls-2" d="M203.6,205V206c-.85.87-1.59,1.58-2.21,2.13a11.91,11.91,0,0,1-1.62,1.25,2.37,2.37,0,0,1-1.18.43c-.77,0-1.15-.45-1.15-1.35a5.84,5.84,0,0,1,.71-2.51,29.62,29.62,0,0,1,2-3.36,8,8,0,0,0-1.25.84,8.27,8.27,0,0,0-1,1l-.76.88q-.94,1.08-1.83,2.19c-.59.75-1,1.24-1.19,1.46a.86.86,0,0,1-.58.34c-.76,0-1.15-.94-1.15-2.82a8.72,8.72,0,0,1,.28-2,10.68,10.68,0,0,1,1.5-3c1.71-2.55,3.17-4.65,4.38-6.27a40.74,40.74,0,0,1,3-3.69c.8-.84,1.34-1.25,1.61-1.23a2.23,2.23,0,0,1,.83.21c.21.11.31.23.31.36a2.93,2.93,0,0,1-.5,1.21c-.34.56-.92,1.44-1.74,2.63s-1.52,2.15-1.89,2.66-.92,1.24-1.66,2.18-1.41,1.79-2,2.52-1.31,1.54-2.09,2.4v1.76q2-2.19,3.4-3.58a22.32,22.32,0,0,1,2.43-2.1,3.11,3.11,0,0,1,1.47-.71,1.05,1.05,0,0,1,.82.52,1.62,1.62,0,0,1,.38.86.69.69,0,0,1-.15.36c-.7.84-1.26,1.54-1.68,2.09a11.32,11.32,0,0,0-1,1.48,2.57,2.57,0,0,0-.33,1.12q0,.69.66.69T203.6,205Z" transform="translate(-173.7 -132.14)"/><path class="cls-2" d="M213,205v1a7.27,7.27,0,0,1-1.55,1.17,3.36,3.36,0,0,1-1.68.24q-1.91,2.25-3.36,2.25a2.34,2.34,0,0,1-1.49-.54,3.72,3.72,0,0,1-1.08-1.48,5.19,5.19,0,0,1-.4-2.09,4.45,4.45,0,0,1,.62-2.08,9.47,9.47,0,0,1,3.73-3.73,4.4,4.4,0,0,1,2.09-.61,2.37,2.37,0,0,1,1.09.21.65.65,0,0,1,.39.6,1.1,1.1,0,0,1-.33.67,1.27,1.27,0,0,1,.76.39,1.7,1.7,0,0,1,.2,1,6.22,6.22,0,0,1-.33,1.77,9.08,9.08,0,0,1-.9,2l.27.26h.22a1.11,1.11,0,0,0,.49-.12c.16-.09.3-.18.43-.27Zm-3-3.85c-.81.48-1.51.93-2.08,1.32a10.53,10.53,0,0,0-1.47,1.2,3.2,3.2,0,0,0-.8,1.23c-.25,1.09-.37,1.68-.37,1.77,0,.64.45,1,1.35,1a4.71,4.71,0,0,0,2.11-1.09,3.79,3.79,0,0,1-.25-1.32,5.17,5.17,0,0,1,.38-1.88A15,15,0,0,1,210,201.15Z" transform="translate(-173.7 -132.14)"/><path class="cls-2" d="M218.13,197.43h.63a7.8,7.8,0,0,1,1.4-2,2.05,2.05,0,0,1,1.44-.58c.54,0,.8.12.8.36a2.92,2.92,0,0,1-.63,1,12.73,12.73,0,0,0-1,1.3l.89.1.61.07a22.88,22.88,0,0,1-2.1,3.18l-.69,0-.56,0-.7,0c-.52.85-1,1.61-1.32,2.27a12.67,12.67,0,0,0-.82,1.84,5,5,0,0,0-.29,1.59c0,.67.27,1,.81,1a2.88,2.88,0,0,0,1.45-.6,27.58,27.58,0,0,0,2.41-1.82v1q-3.94,4.29-5.84,4.29a1.28,1.28,0,0,1-1.06-.51,2.06,2.06,0,0,1-.4-1.32,4.57,4.57,0,0,1,.22-1.29c.15-.5.42-1.25.82-2.25-.14.11-.27.23-.39.34l-.34.31-.33.29-.35.32v-1a23.07,23.07,0,0,0,3.72-4.53l-.41,0h-.45a5.08,5.08,0,0,0-1.29.12l-.33.09a.68.68,0,0,1-.22,0s-.05,0-.05-.08a3.18,3.18,0,0,1,.6-1.45,5.12,5.12,0,0,1,.91-1.22,2.38,2.38,0,0,1,1.06-.54A8.77,8.77,0,0,1,218.13,197.43Z" transform="translate(-173.7 -132.14)"/><path class="cls-2" d="M229.9,205v1a7.27,7.27,0,0,1-1.55,1.17,3.36,3.36,0,0,1-1.68.24q-1.9,2.25-3.36,2.25a2.34,2.34,0,0,1-1.49-.54,3.72,3.72,0,0,1-1.08-1.48,5.19,5.19,0,0,1-.4-2.09,4.45,4.45,0,0,1,.62-2.08,9.47,9.47,0,0,1,3.73-3.73,4.4,4.4,0,0,1,2.09-.61,2.37,2.37,0,0,1,1.09.21.65.65,0,0,1,.39.6,1.1,1.1,0,0,1-.33.67,1.27,1.27,0,0,1,.76.39,1.7,1.7,0,0,1,.2,1,6.22,6.22,0,0,1-.33,1.77,9.08,9.08,0,0,1-.9,2l.27.26h.22a1.11,1.11,0,0,0,.49-.12c.16-.09.3-.18.43-.27Zm-3-3.85c-.81.48-1.51.93-2.08,1.32a10.53,10.53,0,0,0-1.47,1.2,3.2,3.2,0,0,0-.8,1.23c-.25,1.09-.37,1.68-.37,1.77,0,.64.45,1,1.35,1a4.71,4.71,0,0,0,2.11-1.09,3.79,3.79,0,0,1-.25-1.32,5,5,0,0,1,.38-1.88A15,15,0,0,1,226.89,201.15Z" transform="translate(-173.7 -132.14)"/><path class="cls-2" d="M241.52,206l-4.86,4a28.24,28.24,0,0,1-3.74,5.29c-1.12,1.17-2,1.75-2.5,1.75-.3,0-.44-.18-.44-.54a5.29,5.29,0,0,1,1.07-2.69,10.1,10.1,0,0,1,1-1.26,13.21,13.21,0,0,1,1-1.06c.33-.3.76-.67,1.3-1.12l1.1-.91c1-2,1.68-3.52,2.11-4.57-.92,1-1.72,1.77-2.41,2.4a12,12,0,0,1-1.88,1.44,3.1,3.1,0,0,1-1.54.51q-.75,0-1.38-1.2a5.17,5.17,0,0,1-.63-2.45,3.19,3.19,0,0,1,.27-1.23,5.94,5.94,0,0,1,.85-1.38,10.8,10.8,0,0,1,1.47-1.5,16.74,16.74,0,0,1,2.1-1.5,7.49,7.49,0,0,1,3.53-1.42q.93,0,.93.69c0,.63-.67,1.25-2,1.86a13,13,0,0,0-2.47,1.43,9.25,9.25,0,0,0-2,1.9,3.14,3.14,0,0,0-.75,1.81,1,1,0,0,0,.19.63.61.61,0,0,0,.5.23,2.06,2.06,0,0,0,1.17-.47,22.1,22.1,0,0,0,2-1.65,18.1,18.1,0,0,0,1.56-1.75,23.61,23.61,0,0,1,1.61-1.85,1.76,1.76,0,0,1,1.15-.63.64.64,0,0,1,.47.18.69.69,0,0,1,.19.53,5.64,5.64,0,0,1-.54,2c-.35.85-1,2.25-1.92,4.2l3.54-2.58Z" transform="translate(-173.7 -132.14)"/><path class="cls-2" d="M240.88,206.16v-1a15.74,15.74,0,0,0,1.2-1.59,1.55,1.55,0,0,1-.68-.4,1,1,0,0,1-.22-.7,3,3,0,0,1,.44-1.33,7.92,7.92,0,0,1,1.09-1.51,3.44,3.44,0,0,1,1.17-.91.87.87,0,0,1,.39-.1q.3,0,.3.27a2.7,2.7,0,0,1-.46,1,32.92,32.92,0,0,1,3.81-.47,1.05,1.05,0,0,1,.43.06,1,1,0,0,1,.41.61,3.23,3.23,0,0,1,.16,1,1.13,1.13,0,0,1-.27.66,13,13,0,0,1-.93,1.05,8.57,8.57,0,0,0-1.31,1.82,3.51,3.51,0,0,0-.52,1.48c0,.46.28.69.85.69s1.63-.61,3.1-1.82v1q-1.22,1.28-2,2a10.22,10.22,0,0,1-1.46,1.16,2.28,2.28,0,0,1-1.2.43,1.23,1.23,0,0,1-1-.56,2.78,2.78,0,0,1-.41-1.63,4.06,4.06,0,0,1,.32-1.44,9.93,9.93,0,0,1,.95-1.75,19.45,19.45,0,0,1,1.4-1.88l-.92.18-1.09.2-.88.16A10.56,10.56,0,0,1,240.88,206.16Z" transform="translate(-173.7 -132.14)"/><path class="cls-2" d="M251.5,202.41a17.78,17.78,0,0,1,4.32-3,8.47,8.47,0,0,1,3.23-1,.83.83,0,0,1,.58.26,2,2,0,0,1,.41.59,1.3,1.3,0,0,1,.16.5.43.43,0,0,1-.21.39,4.07,4.07,0,0,1-.72.3l.27.6c.11.24.19.44.25.59a1.13,1.13,0,0,1,.09.4,3.05,3.05,0,0,1-.72,1.32q-.71,1-1,1.41a2,2,0,0,0-.29,1.11c0,.73.33,1.09,1,1.09s1.75-.64,3.21-1.92V206q-3.7,4.13-5.31,4.12a.89.89,0,0,1-.81-.38,2,2,0,0,1-.24-1.1,10.64,10.64,0,0,1,.83-3.36c-1.42,1.59-2.48,2.71-3.17,3.38a2.88,2.88,0,0,1-1.72,1c-.21,0-.48-.18-.8-.55a5.24,5.24,0,0,1-.86-1.45,4.64,4.64,0,0,1-.37-1.83,4.14,4.14,0,0,1,.13-1.15,2.86,2.86,0,0,1,.51-.95A11.89,11.89,0,0,1,251.5,202.41Zm7-1.62a31.76,31.76,0,0,0-5.42,3,3.31,3.31,0,0,0-1.62,2.51,1.6,1.6,0,0,0,.16.77.49.49,0,0,0,.44.3,1.6,1.6,0,0,0,.57-.21,11.5,11.5,0,0,0,2.81-2.36C256.3,203.79,257.32,202.46,258.51,200.79Z" transform="translate(-173.7 -132.14)"/><path class="cls-2" d="M261.78,206.26v-1q2.06-2.22,3.54-4.19c1-1.3,1.77-2.34,2.35-3.12a7.7,7.7,0,0,1,1.52-1.63,2.74,2.74,0,0,1,1.66-.48c.33,0,.49.13.49.39a1.89,1.89,0,0,1-.4.9,8.39,8.39,0,0,1-1,1.23,12,12,0,0,0-1.63,2.06c-.54.83-1.14,1.88-1.81,3.16l1.82-1.46c.69-.56,1.25-1,1.69-1.32a6.86,6.86,0,0,1,1.28-.75,3.16,3.16,0,0,1,1.29-.28.68.68,0,0,1,.53.15.91.91,0,0,1,.13.57,4.72,4.72,0,0,1-.55,2.17,10.79,10.79,0,0,1-1.55,2.21,32.34,32.34,0,0,1-2.49,2.49,2.91,2.91,0,0,0,1.05.19c1.14,0,2.66-.87,4.56-2.59v1c-.74.66-1.47,1.29-2.17,1.88a14.49,14.49,0,0,1-2,1.4,3.64,3.64,0,0,1-1.73.53,2.83,2.83,0,0,1-.63-.07,3.27,3.27,0,0,1-.6-.16q-.28-.09-.72-.27c-.29-.12-.52-.2-.67-.25l-.53.12a2.48,2.48,0,0,1-1.2-.41,24.39,24.39,0,0,0-1.07,2.42c-.38,1-.71,1.78-1,2.37a7.33,7.33,0,0,1-1.05,1.68c-.25.25-.42.37-.52.37q-.63,0-.63-1.11a5.78,5.78,0,0,1,.39-2,12,12,0,0,1,.95-2c.38-.63.79-1.26,1.24-1.9s.77-1.12.95-1.43q2.33-4,3.61-6.78C264.63,203.1,262.93,205.07,261.78,206.26Zm6,.72a21.18,21.18,0,0,0,2.16-2.6,3.46,3.46,0,0,0,.71-1.64.48.48,0,0,0-.54-.54,3.69,3.69,0,0,0-2.06,1.21,18.27,18.27,0,0,0-2.73,3.26,7.89,7.89,0,0,1,1.45-.08A2.79,2.79,0,0,1,267.73,207Z" transform="translate(-173.7 -132.14)"/><path class="cls-2" d="M285.08,205V206c-.84.87-1.58,1.58-2.2,2.13a11.34,11.34,0,0,1-1.63,1.25,2.31,2.31,0,0,1-1.17.43c-.77,0-1.15-.45-1.15-1.35a5.84,5.84,0,0,1,.71-2.51,29.62,29.62,0,0,1,2.05-3.36,8,8,0,0,0-1.25.84,8.27,8.27,0,0,0-1,1l-.76.88q-1,1.08-1.83,2.19c-.59.75-1,1.24-1.19,1.46a.86.86,0,0,1-.58.34c-.77,0-1.15-.94-1.15-2.82a8.72,8.72,0,0,1,.28-2,10.68,10.68,0,0,1,1.5-3c1.71-2.55,3.17-4.65,4.38-6.27a40.74,40.74,0,0,1,3-3.69c.8-.84,1.34-1.25,1.61-1.23a2.23,2.23,0,0,1,.83.21c.21.11.31.23.31.36a2.93,2.93,0,0,1-.5,1.21c-.34.56-.92,1.44-1.74,2.63s-1.52,2.15-1.89,2.66-.92,1.24-1.66,2.18-1.41,1.79-2,2.52-1.31,1.54-2.09,2.4v1.76q2-2.19,3.4-3.58a22.32,22.32,0,0,1,2.43-2.1,3.13,3.13,0,0,1,1.46-.71,1,1,0,0,1,.82.52,1.58,1.58,0,0,1,.39.86.69.69,0,0,1-.15.36c-.7.84-1.26,1.54-1.68,2.09a11.32,11.32,0,0,0-1,1.48,2.57,2.57,0,0,0-.33,1.12c0,.46.22.69.65.69S283.47,206.29,285.08,205Z" transform="translate(-173.7 -132.14)"/><path class="cls-2" d="M291.84,205.6l-2.61,2.21c-1.24,1.09-2.07,1.63-2.49,1.63s-.78-.44-1.2-1.31a5.47,5.47,0,0,1-.63-2.3,3.35,3.35,0,0,1,.26-1.41,9.51,9.51,0,0,1,.88-1.5,20.66,20.66,0,0,1,1.72-2.11,11.77,11.77,0,0,1,1.45-1.34,2,2,0,0,1,.87-.48,1.06,1.06,0,0,1,.77.41,1.28,1.28,0,0,1,.38.85,2,2,0,0,1-.41.9,12.13,12.13,0,0,1-1.27,1.56,29,29,0,0,1-2.42,2.26l-.28.81a.9.9,0,0,0-.12.41.35.35,0,0,0,.4.39,5.6,5.6,0,0,0,1.92-1,23.57,23.57,0,0,0,3.29-2.8c.46-.46.84-.86,1.14-1.21s.58-.68.82-1a9.19,9.19,0,0,1,.61-.7.82.82,0,0,1,.43-.25.54.54,0,0,1,.57.31,2.07,2.07,0,0,1,.21,1,2.11,2.11,0,0,1-.35,1c-.24.4-.68,1.07-1.32,2s-1.29,1.94-1.93,3-1.29,2.17-1.95,3.45l.9-.88c.57-.56,1.17-1.14,1.81-1.74s1.16-1.09,1.57-1.46.92-.79,1.53-1.28v1q-2,2.13-3.58,4c-1.07,1.27-1.89,2.28-2.47,3.05l-1,1.33c-.27.34-.5.66-.71,1a8.33,8.33,0,0,1-.53.69c-.14.16-.26.24-.34.24s-.39-.2-.55-.61a3,3,0,0,1-.24-1.08,1.58,1.58,0,0,1,.16-.74A79.62,79.62,0,0,1,291.84,205.6Z" transform="translate(-173.7 -132.14)"/></svg>